<svg xmlns="http://www.w3.org/2000/svg" version="1.1" width="1268" height="1268">
    <svg viewBox="0 0 1268 1268" xmlns="http://www.w3.org/2000/svg">
        <path d="M 909.1 198.8 C 908.3 200.3 837.5 359.9 831.9 372.7 L 830.1 376.9 L 834.7 374 C 846.5 366.5 865.6 362 885.5 362 C 946 362 979.6 395.2 986.1 461.4 C 986.7 468 987.4 473.6 987.5 473.7 C 987.6 473.9 1000.2 468.5 1015.6 461.9 C 1057.3 443.8 1085.4 431.6 1116.5 418.1 C 1131.9 411.4 1144.8 405.6 1145.2 405.2 C 1145.5 404.8 1144.1 397.7 1142.1 389.5 C 1121.8 309.4 1081.7 254.6 1020.7 223.9 C 996 211.4 961.9 202.2 927.2 198.6 C 908.6 196.7 910.3 196.6 909.1 198.8 Z M 884 579 L 884 741 L 995.2 741 L 994.6 750.7 C 991.9 788.4 987.1 814.5 978.5 837.6 C 970.7 858.3 962.3 871.7 949 884.4 C 941.4 891.6 938.1 893.9 929.7 897.9 C 915.5 904.8 909.4 906.1 890.8 906.7 C 873.7 907.3 859.4 905.5 852.7 902.1 L 849.3 900.4 L 850.7 902.9 C 851.5 904.3 922.9 1068.5 922.9 1068.5 L 927.7 1068.2 C 936.2 1067.6 956.1 1063 971.4 1057.9 C 1011.4 1044.8 1047.4 1020.9 1081 985.1 C 1124.6 938.7 1148.1 896.2 1165.4 833 C 1170.3 814.8 1176.5 787.4 1179 773 C 1184.3 741.8 1184.3 743.4 1184.7 658.7 L 1185.1 579 L 884 579 Z"
              style="fill: rgb(119, 119, 119);"/>
        <path d="M 83 197 L 83 1070 L 273 1070 C 273 1070 273.1 628.9 274.7 629.2 C 276 629.4 450.8 1069.5 450.8 1069.5 C 450.8 1069.5 651 1069.9 650.2 1068.3 C 649.7 1067.3 453 614 453.3 612.6 C 453.5 611.5 637 197 637 197 L 443.5 197 C 443.5 197 275.8 596.5 274.9 596.5 C 273.7 596.5 273 197 273 197 L 83 197 Z"
              style="fill: rgb(87, 87, 87);"/>
        <path d="M 715.9 197 L 541.1 611.8 L 723.3 1070 C 723.3 1070 923 1069.8 923 1069.4 C 923 1068.8 727.3 620 725.8 616 C 724.8 613.4 909.1 198.6 909.5 198 C 909.9 197.3 715.9 197 715.9 197 Z"
              style="fill: rgb(87, 87, 87);"/>
    </svg>
    <style>@media (prefers-color-scheme: light) { :root { filter: none; } }
        @media (prefers-color-scheme: dark) { :root { filter: none; } }
    </style>
</svg>
